<mxfile host="app.diagrams.net" modified="2023-12-13T04:42:02.557Z" agent="Mozilla/5.0 (Windows NT 10.0; Win64; x64) AppleWebKit/537.36 (KHTML, like Gecko) Chrome/120.0.0.0 Safari/537.36" etag="dttRaY9l0sFJ5O8UXZNI" version="22.1.8" type="github">
  <diagram name="Page-1" id="5d7acffa-a066-3a61-03fe-96351882024d">
    <mxGraphModel dx="899" dy="376" grid="1" gridSize="10" guides="1" tooltips="1" connect="1" arrows="1" fold="1" page="1" pageScale="1" pageWidth="1100" pageHeight="850" background="#ffffff" math="0" shadow="0">
      <root>
        <mxCell id="0" />
        <mxCell id="1" parent="0" />
        <mxCell id="2-qn9SCY0CSl4VwghT2g-1" value="&lt;font style=&quot;font-size: 14px;&quot;&gt;&lt;b style=&quot;&quot;&gt;Website&lt;/b&gt;&lt;/font&gt;" style="swimlane;childLayout=stackLayout;horizontal=1;startSize=30;horizontalStack=0;rounded=1;fontSize=14;fontStyle=0;strokeWidth=2;resizeParent=0;resizeLast=1;shadow=0;dashed=0;align=center;arcSize=4;whiteSpace=wrap;html=1;" vertex="1" parent="1">
          <mxGeometry x="430" y="90" width="133.33" height="100" as="geometry" />
        </mxCell>
        <mxCell id="2-qn9SCY0CSl4VwghT2g-2" value="&lt;font style=&quot;font-size: 12px;&quot;&gt;Grievance / &lt;br&gt;Feedback&lt;/font&gt;" style="align=center;strokeColor=none;fillColor=none;spacingLeft=4;fontSize=12;verticalAlign=top;resizable=0;rotatable=0;part=1;html=1;" vertex="1" parent="2-qn9SCY0CSl4VwghT2g-1">
          <mxGeometry y="30" width="133.33" height="70" as="geometry" />
        </mxCell>
        <mxCell id="2-qn9SCY0CSl4VwghT2g-5" value="&lt;font style=&quot;font-size: 14px;&quot;&gt;User&lt;/font&gt;" style="rounded=0;whiteSpace=wrap;html=1;" vertex="1" parent="1">
          <mxGeometry x="80" y="120" width="120" height="60" as="geometry" />
        </mxCell>
        <mxCell id="2-qn9SCY0CSl4VwghT2g-9" value="" style="endArrow=classic;html=1;rounded=0;edgeStyle=orthogonalEdgeStyle;exitX=1.002;exitY=0.172;exitDx=0;exitDy=0;exitPerimeter=0;" edge="1" parent="1" source="2-qn9SCY0CSl4VwghT2g-5">
          <mxGeometry relative="1" as="geometry">
            <mxPoint x="210" y="130" as="sourcePoint" />
            <mxPoint x="430" y="129" as="targetPoint" />
          </mxGeometry>
        </mxCell>
        <mxCell id="2-qn9SCY0CSl4VwghT2g-10" value="Grievance / Feedback Details" style="edgeLabel;resizable=0;html=1;align=center;verticalAlign=middle;" connectable="0" vertex="1" parent="2-qn9SCY0CSl4VwghT2g-9">
          <mxGeometry relative="1" as="geometry" />
        </mxCell>
        <mxCell id="2-qn9SCY0CSl4VwghT2g-16" value="&lt;font style=&quot;font-size: 14px;&quot;&gt;&lt;b style=&quot;&quot;&gt;Notification&lt;/b&gt;&lt;/font&gt;" style="swimlane;childLayout=stackLayout;horizontal=1;startSize=30;horizontalStack=0;rounded=1;fontSize=14;fontStyle=0;strokeWidth=2;resizeParent=0;resizeLast=1;shadow=0;dashed=0;align=center;arcSize=4;whiteSpace=wrap;html=1;" vertex="1" parent="1">
          <mxGeometry x="150" y="240" width="133.33" height="80" as="geometry" />
        </mxCell>
        <mxCell id="2-qn9SCY0CSl4VwghT2g-17" value="&lt;font style=&quot;font-size: 12px;&quot;&gt;Generate Dashboard&lt;br&gt;&amp;amp; Reports&lt;/font&gt;" style="align=center;strokeColor=none;fillColor=none;spacingLeft=4;fontSize=12;verticalAlign=top;resizable=0;rotatable=0;part=1;html=1;" vertex="1" parent="2-qn9SCY0CSl4VwghT2g-16">
          <mxGeometry y="30" width="133.33" height="50" as="geometry" />
        </mxCell>
        <mxCell id="2-qn9SCY0CSl4VwghT2g-31" value="&lt;font style=&quot;font-size: 12px;&quot;&gt;Generate Dashboard&lt;br&gt;&amp;amp; Reports&lt;/font&gt;" style="align=center;strokeColor=none;fillColor=none;spacingLeft=4;fontSize=12;verticalAlign=top;resizable=0;rotatable=0;part=1;html=1;" vertex="1" parent="2-qn9SCY0CSl4VwghT2g-16">
          <mxGeometry y="80" width="133.33" as="geometry" />
        </mxCell>
        <mxCell id="2-qn9SCY0CSl4VwghT2g-32" value="&lt;font style=&quot;font-size: 12px;&quot;&gt;Generate Dashboard&lt;br&gt;&amp;amp; Reports&lt;/font&gt;" style="align=center;strokeColor=none;fillColor=none;spacingLeft=4;fontSize=12;verticalAlign=top;resizable=0;rotatable=0;part=1;html=1;" vertex="1" parent="2-qn9SCY0CSl4VwghT2g-16">
          <mxGeometry y="80" width="133.33" as="geometry" />
        </mxCell>
        <mxCell id="2-qn9SCY0CSl4VwghT2g-33" value="&lt;font style=&quot;font-size: 12px;&quot;&gt;Generate Dashboard&lt;br&gt;&amp;amp; Reports&lt;/font&gt;" style="align=center;strokeColor=none;fillColor=none;spacingLeft=4;fontSize=12;verticalAlign=top;resizable=0;rotatable=0;part=1;html=1;" vertex="1" parent="2-qn9SCY0CSl4VwghT2g-16">
          <mxGeometry y="80" width="133.33" as="geometry" />
        </mxCell>
        <mxCell id="2-qn9SCY0CSl4VwghT2g-19" value="&lt;font style=&quot;font-size: 14px;&quot;&gt;GRO&lt;/font&gt;" style="rounded=0;whiteSpace=wrap;html=1;" vertex="1" parent="1">
          <mxGeometry x="720" y="350" width="120" height="60" as="geometry" />
        </mxCell>
        <mxCell id="2-qn9SCY0CSl4VwghT2g-20" value="Grievance / Feedback Data" style="shape=cylinder3;whiteSpace=wrap;html=1;boundedLbl=1;backgroundOutline=1;size=15;" vertex="1" parent="1">
          <mxGeometry x="740" y="200" width="90" height="80" as="geometry" />
        </mxCell>
        <mxCell id="2-qn9SCY0CSl4VwghT2g-21" value="" style="endArrow=classic;html=1;rounded=0;edgeStyle=orthogonalEdgeStyle;exitX=1;exitY=0.5;exitDx=0;exitDy=0;entryX=0.5;entryY=0;entryDx=0;entryDy=0;entryPerimeter=0;" edge="1" parent="1" source="2-qn9SCY0CSl4VwghT2g-2" target="2-qn9SCY0CSl4VwghT2g-20">
          <mxGeometry relative="1" as="geometry">
            <mxPoint x="470" y="260" as="sourcePoint" />
            <mxPoint x="630" y="260" as="targetPoint" />
          </mxGeometry>
        </mxCell>
        <mxCell id="2-qn9SCY0CSl4VwghT2g-22" value="Store" style="edgeLabel;resizable=0;html=1;align=center;verticalAlign=middle;" connectable="0" vertex="1" parent="2-qn9SCY0CSl4VwghT2g-21">
          <mxGeometry relative="1" as="geometry" />
        </mxCell>
        <mxCell id="2-qn9SCY0CSl4VwghT2g-29" value="&lt;font style=&quot;font-size: 14px;&quot;&gt;&lt;b style=&quot;&quot;&gt;Protal&lt;/b&gt;&lt;/font&gt;" style="swimlane;childLayout=stackLayout;horizontal=1;startSize=30;horizontalStack=0;rounded=1;fontSize=14;fontStyle=0;strokeWidth=2;resizeParent=0;resizeLast=1;shadow=0;dashed=0;align=center;arcSize=4;whiteSpace=wrap;html=1;" vertex="1" parent="1">
          <mxGeometry x="380" y="340" width="133.33" height="80" as="geometry" />
        </mxCell>
        <mxCell id="2-qn9SCY0CSl4VwghT2g-30" value="&lt;font style=&quot;font-size: 12px;&quot;&gt;Generate Dashboard&lt;br&gt;&amp;amp; Reports&lt;/font&gt;" style="align=center;strokeColor=none;fillColor=none;spacingLeft=4;fontSize=12;verticalAlign=top;resizable=0;rotatable=0;part=1;html=1;" vertex="1" parent="2-qn9SCY0CSl4VwghT2g-29">
          <mxGeometry y="30" width="133.33" height="50" as="geometry" />
        </mxCell>
      </root>
    </mxGraphModel>
  </diagram>
</mxfile>
